<?xml version="1.0" encoding="UTF-8"?>
<svg version="1.1" xmlns="http://www.w3.org/2000/svg" width="2000" height="2000">
<path d="M0 0 C660 0 1320 0 2000 0 C2000 660 2000 1320 2000 2000 C1340 2000 680 2000 0 2000 C0 1340 0 680 0 0 Z " fill="#FEFEFE" transform="translate(0,0)"/>
<path d="M0 0 C9.51911642 0 18.67018326 0.12176939 28.09765625 0.953125 C29.28277298 1.05312302 30.46788971 1.15312103 31.68891907 1.25614929 C35.4808609 1.5793772 39.27171889 1.91344877 43.0625 2.25 C44.36189514 2.36393097 45.66129028 2.47786194 47.00006104 2.59524536 C65.74709287 4.24546644 84.41083676 6.02000021 103 9 C104.03592285 9.16595673 104.03592285 9.16595673 105.09277344 9.33526611 C114.32898028 10.81918485 123.55439271 12.36300074 132.77462769 13.94288635 C137.0568654 14.6750093 141.3419004 15.38254116 145.6328125 16.0625 C177.89790829 21.1913371 209.866794 28.71182852 241.13647461 38.14941406 C244.25011438 39.07429436 247.37387278 39.95812137 250.5 40.83984375 C279.51736973 49.11051408 307.96509205 58.86050971 336 70 C336.65145996 70.25825562 337.30291992 70.51651123 337.97412109 70.78259277 C375.15481887 85.54523771 411.64236898 102.37561432 446.27392578 122.4296875 C449.00468643 124.00269954 451.74782932 125.55155141 454.49609375 127.09375 C465.60536288 133.34208825 476.39057503 139.93830372 487 147 C488.07636719 147.70898438 489.15273438 148.41796875 490.26171875 149.1484375 C492.14939688 150.39701937 494.02683855 151.66134574 495.88930516 152.94723201 C498.98565232 155.05257425 498.98565232 155.05257425 502.34903673 156.8289158 C511.25873947 162.03292197 511.25873947 162.03292197 513.19826273 167.17982168 C513.65572968 171.06495654 513.69944721 174.84167591 513.59962177 178.741395 C513.60924754 180.24076876 513.62458055 181.74011474 513.64507625 183.23937932 C513.68490802 187.36185777 513.6437788 191.48015737 513.58946051 195.60232357 C513.54475464 200.085294 513.57564686 204.56784694 513.59696788 209.05090135 C513.62391779 216.90827177 513.60257702 224.76436228 513.54967117 232.62158394 C513.47122252 244.30470281 513.46730461 255.98701447 513.47871703 267.67034871 C513.49580006 287.323014 513.45235161 306.97511121 513.37449074 326.62761116 C513.29758835 346.08803173 513.2475374 365.54821574 513.23340416 385.00878716 C513.23251054 386.21844924 513.23161693 387.42811132 513.23069623 388.67442983 C513.22629795 394.8176082 513.22237994 400.96078677 513.21864685 407.10396557 C513.19133617 450.62440311 513.10373593 494.14453153 512.98071289 537.66479492 C512.86133022 579.94602819 512.76923603 622.22717689 512.71411133 664.50854492 C512.71240149 665.811672 512.71069165 667.11479907 512.70892999 668.45741485 C512.69178934 681.54386578 512.67520374 694.63031736 512.65902482 707.71676951 C512.62605341 734.37575431 512.58937713 761.03473358 512.55046082 787.69371033 C512.54867605 788.91946655 512.54689128 790.14522277 512.54505242 791.40812312 C512.42542903 873.27221062 512.21943968 955.13612673 512 1037 C508.80573745 1035.43819725 505.90955818 1033.67866833 502.95703125 1031.69140625 C501.97460449 1031.03245361 500.99217773 1030.37350098 499.97998047 1029.69458008 C498.93471191 1028.99099365 497.88944336 1028.28740723 496.8125 1027.5625 C494.62417904 1026.09823904 492.43537507 1024.63469968 490.24609375 1023.171875 C489.17472168 1022.45580078 488.10334961 1021.73972656 486.99951172 1021.00195312 C468.34189384 1008.54936753 449.13647528 997.08819696 429.44775391 986.33935547 C426.7456908 984.86084777 424.05083544 983.36958408 421.35546875 981.87890625 C407.79163144 974.41253311 394.05719091 967.4865616 380 961 C378.40720215 960.2584668 378.40720215 960.2584668 376.78222656 959.50195312 C345.00271049 944.75149585 312.33223923 932.48994859 279.20314026 921.14311218 C275.0764616 919.72730721 270.9704905 918.26904682 266.87890625 916.75390625 C262.50884837 915.14995094 258.11916512 913.82852863 253.625 912.625 C248.01640167 911.11362793 242.42417359 909.55552942 236.84527588 907.93800354 C224.70313289 904.4228753 212.49883455 901.1834242 200.25 898.0625 C199.22787415 897.80198853 198.20574829 897.54147705 197.15264893 897.27307129 C164.36430268 888.94193472 131.3344724 882.71344519 98 877 C97.19341949 876.86102295 96.38683899 876.7220459 95.55581665 876.57885742 C85.41524418 874.83561926 75.27326076 873.28501169 65.0625 872 C64.4116745 871.91728851 63.760849 871.83457703 63.09030151 871.74935913 C36.18137435 868.25842269 36.18137435 868.25842269 9.13671875 866.2109375 C6.07143682 866.00480397 3.03040447 865.50506741 0 865 C0 579.55 0 294.1 0 0 Z " fill="#FEFEFE" transform="translate(446,444)"/>
<path d="M0 0 C0 285.45 0 570.9 0 865 C-9.9 865.99 -19.8 866.98 -30 868 C-35.56671551 868.60450865 -41.12769874 869.21571925 -46.6875 869.875 C-47.3708139 869.95581818 -48.05412781 870.03663635 -48.75814819 870.11990356 C-80.27901192 873.86544866 -111.92759856 878.15972922 -142.89355469 885.21289062 C-148.0508001 886.38634793 -153.21414345 887.41261732 -158.41967773 888.35180664 C-166.30813411 889.80804035 -174.07961024 891.62453782 -181.859375 893.58203125 C-183.22342261 893.92236552 -184.58753979 894.26242103 -185.95172119 894.60221863 C-188.78596934 895.30932296 -191.61935901 896.01974099 -194.45214844 896.73266602 C-198.01812657 897.62983305 -201.58615965 898.51849786 -205.15482807 899.40489388 C-219.87090512 903.06373049 -234.51991467 906.83937443 -248.99517822 911.37557983 C-251.96347979 912.30008463 -254.94500999 913.17917013 -257.92578125 914.0625 C-321.74461674 933.29347918 -384.85113731 959.70306261 -442.390625 993.46875 C-445.05575631 995.03271927 -447.73039481 996.57946295 -450.40625 998.125 C-469.82199838 1009.40140293 -488.80312866 1021.34011947 -506.84375 1034.71875 C-510 1037 -510 1037 -511 1037 C-511.11993393 953.85558481 -511.2312361 870.71115919 -511.29640198 787.56668091 C-511.29736838 786.33680838 -511.29833478 785.10693584 -511.29933046 783.83979445 C-511.32027909 757.1136207 -511.33967061 730.38744604 -511.35745731 703.66127001 C-511.36618893 690.55542981 -511.37526477 677.44958985 -511.38452148 664.34375 C-511.3854368 663.03953688 -511.38635211 661.73532377 -511.38729516 660.39158904 C-511.41714339 618.09141312 -511.46973653 575.7913025 -511.53408055 533.49116617 C-511.60006312 490.03507324 -511.6431875 446.57901648 -511.65740493 403.1228743 C-511.65942212 396.98996792 -511.66170158 390.85706166 -511.6641407 384.72415543 C-511.66461266 383.51706959 -511.66508462 382.30998376 -511.66557089 381.06631957 C-511.67385428 361.60790439 -511.70635121 342.14960078 -511.74782424 322.69123116 C-511.7889691 303.14572455 -511.80479244 283.60032895 -511.79450964 264.05478053 C-511.7891713 252.43150385 -511.80350618 240.80863232 -511.8455828 229.18542853 C-511.87174844 221.43004397 -511.87270515 213.67492603 -511.8528227 205.91952337 C-511.8422106 201.49468618 -511.84288216 197.0706174 -511.87418228 192.64586125 C-511.90242004 188.6236217 -511.89868123 184.60275312 -511.86897983 180.58053569 C-511.8639629 179.13138442 -511.87079124 177.68213373 -511.89064671 176.2331098 C-512.02899469 165.45698396 -512.02899469 165.45698396 -509.48872513 161.86014129 C-507.72682465 160.31686766 -506.03379508 159.15084596 -504 158 C-503.01821777 157.30213379 -502.03643555 156.60426758 -501.02490234 155.88525391 C-500.05504395 155.25538574 -499.08518555 154.62551758 -498.0859375 153.9765625 C-496.99410156 153.265 -495.90226562 152.5534375 -494.77734375 151.8203125 C-494.21644043 151.4584082 -493.65553711 151.09650391 -493.07763672 150.72363281 C-491.39608517 149.63860529 -489.71948942 148.54590987 -488.04296875 147.453125 C-358.00954704 63 -358.00954704 63 -317 63 C-317.60299647 74.266513 -319.17232017 85.39120132 -320.69387817 96.56228638 C-321.48868792 102.3994576 -322.27317804 108.23801766 -323.05818748 114.07651329 C-323.25571135 115.54514095 -323.4533777 117.01374945 -323.65117836 118.48233986 C-325.5928295 132.89888404 -327.49888625 147.32004219 -329.3984375 161.7421875 C-329.70145837 164.04195703 -330.00448269 166.34172612 -330.30751038 168.64149475 C-331.52062745 177.84976612 -332.73337911 187.05808521 -333.94393921 196.26669312 C-334.80622956 202.82512209 -335.66998137 209.38335717 -336.53515625 215.94140625 C-336.67575407 217.00730925 -336.81635189 218.07321224 -336.96121025 219.17141533 C-339.49654604 238.37173954 -342.11575709 257.56016555 -344.77613831 276.74354553 C-344.98889121 278.28196578 -344.98889121 278.28196578 -345.20594215 279.85146523 C-345.4684206 281.74884223 -345.73186849 283.64608552 -345.99654198 285.54315758 C-349.32298509 309.60517789 -347.00302509 331.88724572 -342.375 355.73242188 C-341.91557085 358.51053253 -341.84814865 361.19075003 -342 364 C-341.34 364 -340.68 364 -340 364 C-339.86271484 363.01966797 -339.86271484 363.01966797 -339.72265625 362.01953125 C-338.76308939 358.01009781 -337.12924389 354.43613647 -335.4375 350.6875 C-334.9434668 349.57665039 -334.9434668 349.57665039 -334.43945312 348.44335938 C-333.63082877 346.62688438 -332.81602884 344.81316069 -332 343 C-332.66 344.32 -333.32 345.64 -334 347 C-336.97 346.67 -339.94 346.34 -343 346 C-345.20813203 334.37050465 -346.82901286 322.77875299 -348 311 C-327.78769168 310.41319105 -327.78769168 310.41319105 -319 315 C-315.35637867 292.75785621 -312.49001772 270.41437017 -309.57070923 248.06845093 C-308.0422263 236.37009011 -306.50163705 224.67331957 -304.9609375 212.9765625 C-304.80137636 211.76469206 -304.64181522 210.55282162 -304.4774189 209.30422783 C-300.81156731 181.47189331 -297.06815049 153.65013082 -293.30521011 125.83077621 C-292.81589931 122.21263574 -292.3270098 118.59443856 -291.83822632 114.97622681 C-291.06506343 109.25372683 -290.29090126 103.53136295 -289.51586533 97.80911636 C-289.23334692 95.72285929 -288.95103116 93.63657476 -288.66894913 91.55025864 C-286.83950067 78.024641 -284.94827709 64.50902033 -283 51 C-275.71705901 47.95469111 -268.38810861 45.46556132 -260.8125 43.25 C-259.65556641 42.90928467 -258.49863281 42.56856934 -257.30664062 42.2175293 C-244.58718776 38.51786444 -231.76436339 35.24198001 -218.91967773 32.00854492 C-216.241161 31.32733753 -213.57412284 30.61309325 -210.91040039 29.8762207 C-195.90351199 25.75372398 -180.68468516 22.64774572 -165.4375 19.5625 C-164.7311718 19.41929699 -164.0248436 19.27609398 -163.29711151 19.12855148 C-128.89547755 12.16105431 -94.59594378 7.363946 -59.6875 3.6875 C-57.84409027 3.49282639 -57.84409027 3.49282639 -55.96343994 3.29421997 C-37.27853994 1.34126781 -18.79653814 0 0 0 Z " fill="#FEFEFE" transform="translate(1578,444)"/>
<path d="M0 0 C0.98061905 -0.00150055 1.9612381 -0.0030011 2.97157288 -0.00454712 C6.12952871 -0.00688576 9.28736821 -0.00068746 12.4453125 0.0078125 C14.0555278 0.01113586 14.0555278 0.01113586 15.69827271 0.01452637 C22.98915027 0.03224533 30.27966003 0.07344986 37.5703125 0.1328125 C38.38719543 0.1390564 39.20407837 0.14530029 40.04571533 0.1517334 C44.53444932 0.18974172 49.02022256 0.26884816 53.5078125 0.3828125 C55.04574463 0.40384033 55.04574463 0.40384033 56.61474609 0.42529297 C63.86408467 0.67424514 70.08067836 2.19317504 75.7265625 6.94921875 C76.17 7.52542969 76.6134375 8.10164062 77.0703125 8.6953125 C77.534375 9.27410156 77.9984375 9.85289062 78.4765625 10.44921875 C80.58560526 13.69563813 80.69514321 16.51357938 80.694511 20.26954573 C80.69675829 21.34131659 80.69900558 22.41308745 80.70132098 23.51733622 C80.69869396 24.70148384 80.69606695 25.88563146 80.69336033 27.10566235 C80.69451417 28.36358553 80.69566802 29.62150871 80.69685683 30.91755077 C80.69993805 34.4315248 80.69674065 37.94547009 80.69257869 41.45944198 C80.68915505 45.27385443 80.69151327 49.08826386 80.69315618 52.90267688 C80.69523388 59.59524123 80.69357941 66.28779671 80.68951797 72.98036003 C80.68349545 82.93203587 80.68318101 92.88370609 80.68405996 102.83538342 C80.68537549 119.57378176 80.68202631 136.31217616 80.67604256 153.05057335 C80.67013082 169.62994087 80.66627768 186.20930674 80.66518974 202.78867531 C80.665121 203.81852475 80.66505226 204.84837419 80.66498144 205.90943118 C80.66464312 211.13925768 80.66434173 216.36908417 80.66405457 221.59891067 C80.66195269 258.6669344 80.65521127 295.73495599 80.64575195 332.80297852 C80.63657146 368.81990548 80.62948591 404.83683186 80.62524414 440.85375977 C80.62511261 441.96344873 80.62498109 443.07313769 80.62484558 444.2164536 C80.62352709 455.36014088 80.62225127 466.50382816 80.62100672 477.64751545 C80.61847033 500.34963049 80.61564907 523.05174549 80.61265564 545.75386047 C80.6124497 547.31966007 80.6124497 547.31966007 80.61223961 548.91709199 C80.60303489 618.65566638 80.58718922 688.39423959 80.5703125 758.1328125 C81.63487702 758.13029637 82.69944155 758.12778025 83.7962656 758.12518787 C87.79354752 758.11640844 91.7908286 758.11094522 95.78811741 758.10641956 C97.5092556 758.10402212 99.23039284 758.10075772 100.9515276 758.0965662 C113.01839887 758.0679421 124.98072995 758.2647405 137.0078125 759.3203125 C138.6288663 759.45158479 140.24996181 759.58234278 141.87109375 759.71264648 C161.67335872 761.34821806 181.43291726 763.55169885 201.16748047 765.85333252 C202.70922762 766.03265736 204.25120319 766.21003519 205.79345703 766.38494873 C213.58272202 767.26978507 221.28978751 768.37526221 228.98800659 769.87284851 C235.05566551 771.05269868 241.1413937 772.10796566 247.234375 773.1484375 C269.37424094 776.95017733 291.36204483 780.84697931 313.16308594 786.29882812 C316.75105099 787.17705173 320.34856243 787.99740097 323.953125 788.8046875 C341.32694173 792.70493207 358.42962994 797.2996665 375.4576416 802.48956299 C377.62939823 803.15080246 379.80243474 803.80771514 381.97558594 804.46435547 C427.84937721 818.36505416 472.35712863 835.36927602 515.5703125 856.1328125 C516.22094666 856.44428223 516.87158081 856.75575195 517.54193115 857.07666016 C521.64872413 859.04372045 525.74638113 861.02826472 529.83395386 863.03497314 C531.13718073 863.67324177 532.44224568 864.30777382 533.7492981 864.93817139 C552.05069181 873.78712494 552.05069181 873.78712494 555.5703125 882.1328125 C556.41969778 887.94023744 555.92419562 893.26076762 552.94921875 898.37109375 C549.87320438 902.30107245 546.2544634 904.77261276 541.24707031 905.44458008 C533.12490376 905.5094761 525.72802784 903.80006197 517.8828125 901.8203125 C515.19933766 901.16466519 512.51368606 900.51813451 509.828125 899.87109375 C507.92595215 899.41017334 507.92595215 899.41017334 505.98535156 898.93994141 C500.88543235 897.73459876 495.76990344 896.77493777 490.609375 895.86328125 C486.47421288 895.13187049 482.36304464 894.29155322 478.24829102 893.45385742 C451.4490478 888.00412494 424.52639463 883.38822501 397.52250671 879.08668518 C393.48882791 878.44330439 389.45801695 877.78540662 385.4296875 877.109375 C362.53155396 873.27646467 339.64762835 870.22582201 316.55502319 867.86164856 C311.19644371 867.31036229 305.8435305 866.71897501 300.4921875 866.1015625 C269.56726466 862.53798029 238.73196089 859.9899026 207.61938477 858.77880859 C206.6928862 858.7421106 205.76638763 858.7054126 204.81181335 858.66760254 C203.0896887 858.60023661 201.36745322 858.53561439 199.64509583 858.4744873 C195.72741711 858.32277656 191.85934704 858.07171111 187.96363831 857.62530518 C182.4926865 857.06888344 177.0777523 856.99193693 171.58227539 857.00341797 C170.53178513 857.00166565 169.48129486 856.99991333 168.39897156 856.99810791 C164.94695347 856.99373057 161.49498731 856.99661651 158.04296875 857 C155.61087535 856.99932493 153.17878201 856.99835321 150.74668884 856.99710083 C145.64695595 856.99562869 140.54724061 856.99775971 135.44750977 857.00244141 C128.99122467 857.00808669 122.53498164 857.00488995 116.07869816 856.99886894 C111.04812826 856.99520577 106.01756784 856.99642878 100.9869976 856.99899673 C98.61176994 856.99965293 96.23654135 856.9988847 93.86131477 856.99651718 C69.33093886 856.97745824 44.92304242 857.84362065 20.47021484 859.80737305 C17.17457881 860.07197719 13.87839644 860.328639 10.58203125 860.58398438 C-4.71100702 861.77947767 -19.99107529 863.1061217 -35.2421875 864.7578125 C-39.73766819 865.13964019 -44.23268322 865.3380528 -48.7421875 865.4453125 C-50.05832031 865.48269531 -51.37445313 865.52007813 -52.73046875 865.55859375 C-57.22355197 865.04143845 -59.06418307 864.15480337 -62.4296875 861.1328125 C-68.07434335 853.9299725 -68.13695431 846.86489473 -68.05609989 838.00722408 C-68.06101756 836.57511437 -68.06812551 835.14301081 -68.07721385 833.7109215 C-68.09583786 829.77633127 -68.08337877 825.84236214 -68.06582391 821.9077897 C-68.05223352 817.62706209 -68.06765581 813.34642252 -68.07937473 809.06570297 C-68.0958969 801.56346154 -68.09381352 794.06140368 -68.07954788 786.55916023 C-68.05839265 775.40321624 -68.06581178 764.24741885 -68.0789231 753.09146908 C-68.10139222 733.16817839 -68.0953771 713.24497248 -68.077487 693.32168169 C-68.06192848 675.88726335 -68.05606491 658.45287475 -68.0598278 641.01844978 C-68.06006461 639.86262988 -68.06030141 638.70680997 -68.06054538 637.51596522 C-68.06152028 632.82429596 -68.06254109 628.13262672 -68.06363049 623.44095749 C-68.07371657 579.41771757 -68.05543998 535.3945299 -68.02391013 491.37130227 C-67.99604703 452.24499357 -67.99108641 413.11874701 -68.00610352 373.99243164 C-68.00992584 363.97328666 -68.0137206 353.95414168 -68.0172739 343.9349966 C-68.01793062 342.08487981 -68.01793062 342.08487981 -68.01860061 340.19738692 C-68.02983575 307.51892426 -68.022495 274.84046618 -68.00939316 242.16200501 C-68.00800456 238.64654086 -68.00662385 235.1310767 -68.00525474 231.61561255 C-68.00434535 229.28347488 -68.00342268 226.95133722 -68.00248663 224.61919956 C-67.99568576 207.19351391 -67.99835543 189.76784619 -68.00543404 172.34216118 C-68.01339307 152.53255837 -68.00686131 132.72301813 -67.981259 112.91342907 C-67.96731532 101.82165151 -67.96437345 90.7299999 -67.9771937 79.63822025 C-67.9846395 72.23484611 -67.97760023 64.83157831 -67.95863559 57.42822492 C-67.94822406 53.20641358 -67.94416797 48.98485627 -67.95761413 44.76304775 C-67.96970971 40.92290856 -67.9634329 37.08325595 -67.94245404 33.24315902 C-67.93608877 31.21029093 -67.94933329 29.17739035 -67.96335694 27.14456066 C-67.89466216 19.03402589 -67.08948746 13.42938897 -61.68554688 7.08520508 C-54.20522494 1.72424402 -45.76732921 2.0459583 -36.9296875 1.8203125 C-34.58596981 1.73382219 -32.24266441 1.63948593 -29.89929199 1.54414368 C-28.45138636 1.48810693 -27.00320666 1.43857365 -25.55480957 1.3971405 C-22.02780485 1.28886038 -18.57078416 1.05394196 -15.06787109 0.62084961 C-10.03851191 0.02963762 -5.05937656 -0.01082433 0 0 Z " fill="#1902AD" transform="translate(291.4296875,621.8671875)"/>
<path d="M0 0 C1.62646957 -0.00200912 1.62646957 -0.00200912 3.28579712 -0.00405884 C19.41507824 0.00020696 35.46899466 0.48829883 51.5625 1.5625 C52.49233704 1.62135376 53.42217407 1.68020752 54.38018799 1.74084473 C57.00875357 1.91198095 59.63510099 2.10216417 62.26171875 2.30078125 C63.02094131 2.35093887 63.78016388 2.4010965 64.56239319 2.45277405 C70.43196674 2.94200471 76.26486372 4.11533446 80.93359375 7.93359375 C81.38863281 8.51238281 81.84367187 9.09117187 82.3125 9.6875 C82.78558594 10.26371094 83.25867187 10.83992187 83.74609375 11.43359375 C86.04348345 15.13008582 86.00076666 18.8229217 86.00380117 23.09163308 C86.00707336 24.29547582 86.01034555 25.49931855 86.01371691 26.73964137 C86.0123068 28.07987743 86.01080479 29.4201134 86.00922108 30.76034927 C86.01117376 32.18662328 86.0135625 33.61289675 86.01634905 35.03916937 C86.02276266 38.98068223 86.02290959 42.92217475 86.02207164 46.86369184 C86.02224087 51.1434286 86.02814396 55.423158 86.0333125 59.70289111 C86.0426499 68.20113834 86.04656246 76.69938035 86.04883147 85.19763206 C86.05179053 95.37262693 86.06048613 105.54761487 86.06924575 115.7226061 C86.09010209 140.31681318 86.10056136 164.91102146 86.10937535 189.50523532 C86.1135797 201.135009 86.11880194 212.76478217 86.12405988 224.39455542 C86.14195006 264.18819267 86.15694752 303.98183006 86.16438007 343.77547073 C86.16485483 346.27426105 86.16533072 348.77305137 86.16580774 351.27184169 C86.1661623 353.13063943 86.1661623 353.13063943 86.16652403 355.02698863 C86.16772525 361.30559008 86.16894069 367.58419153 86.17016602 373.86279297 C86.17040617 375.108809 86.17064632 376.35482503 86.17089374 377.63859912 C86.17879007 418.05497361 86.20222879 458.47131878 86.23472196 498.88768046 C86.26899653 541.59760664 86.28872896 584.30751565 86.29202431 627.01745582 C86.29244187 631.70322403 86.29292144 636.38899223 86.29344749 641.07476044 C86.29357069 642.2285657 86.29369388 643.38237097 86.2938208 644.57114003 C86.29615566 663.1622989 86.31183138 681.75342379 86.33228934 700.34457054 C86.35251489 719.02033018 86.35804014 737.69604888 86.34851871 756.37181744 C86.34329118 767.47468887 86.34924019 778.57742429 86.37105338 789.68027622 C86.38451623 797.09120415 86.3835246 804.50203799 86.37065142 811.91296675 C86.36372465 816.13919601 86.36318747 820.36516441 86.38021151 824.59137085 C86.39557096 828.43555809 86.392542 832.27927386 86.37480123 836.12344684 C86.37016192 838.15851672 86.38517139 840.19360239 86.40096101 842.2286163 C86.34651619 849.37684517 85.80862298 854.20794559 81.875 860.25 C74.98864034 866.64447683 67.75468693 865.55125216 58.875 865.25 C53.87145452 864.97311786 48.88509313 864.51238336 43.8984375 864.02319336 C41.7168037 863.8092445 39.53436596 863.60593201 37.3515625 863.40429688 C26.82842828 862.41375366 26.82842828 862.41375366 22.99723816 861.7557373 C12.57435296 860.06744782 1.84796345 859.84884976 -8.6875 859.1875 C-9.4167997 859.14152805 -10.1460994 859.09555611 -10.89749908 859.04819107 C-41.25890767 857.15700165 -71.58679321 856.88524812 -102 856.9375 C-103.62901686 856.93948458 -103.62901686 856.93948458 -105.29094315 856.94150925 C-140.61792904 856.98769253 -175.8003245 857.69724292 -211.0625 860 C-212.39866845 860.08605556 -213.73483997 860.17206358 -215.0710144 860.25802612 C-238.82929525 861.79539692 -262.48332678 864.02318979 -286.140625 866.69482422 C-291.94688753 867.34743054 -297.7589098 867.93324502 -303.57275391 868.51367188 C-313.33554606 869.48955546 -323.08073049 870.56303943 -332.8125 871.8125 C-333.71556885 871.9273877 -334.6186377 872.04227539 -335.54907227 872.16064453 C-339.66160785 872.70618893 -343.7171329 873.34581476 -347.77734375 874.19921875 C-354.0636063 875.49790164 -360.41573652 876.3221432 -366.77197266 877.19296265 C-413.95656526 883.6953211 -460.82385087 892.50196462 -507.15380859 903.56079102 C-522.34098842 907.08366765 -522.34098842 907.08366765 -529 903.625 C-533.19826665 900.43431734 -535.46295531 897.23613407 -537.125 892.25 C-537.64078753 887.33733521 -537.69944169 883.4209773 -535.5 878.9375 C-530.72464679 873.53381085 -525.63975902 870.20929866 -519.24609375 867.0625 C-518.11218452 866.4934343 -518.11218452 866.4934343 -516.95536804 865.91287231 C-514.49559055 864.68259951 -512.02965959 863.46539383 -509.5625 862.25 C-508.7138739 861.82926208 -507.8652478 861.40852417 -506.99090576 860.97503662 C-450.13266527 832.79496079 -390.62914441 810.23382235 -328.99511719 794.98095703 C-325.35376525 794.05358312 -321.74464727 793.02773201 -318.1315918 791.99658203 C-304.22548382 788.05142216 -290.11076049 785.12652783 -275.95605469 782.24023438 C-272.60812175 781.55657549 -269.26283237 780.86138222 -265.91894531 780.15820312 C-238.77308038 774.45168991 -211.64516723 769.73917021 -184.125 766.25 C-183.33164246 766.14923157 -182.53828491 766.04846313 -181.72088623 765.94464111 C-171.19947244 764.61439102 -160.66947035 763.3832842 -150.125 762.25 C-149.12275391 762.14204102 -148.12050781 762.03408203 -147.08789062 761.92285156 C-140.77403596 761.25929359 -134.4563587 760.71623559 -128.125 760.25 C-126.90474121 760.15976563 -125.68448242 760.06953125 -124.42724609 759.9765625 C-120.92879185 759.72290156 -117.42933298 759.48823539 -113.92895508 759.26275635 C-111.95029511 759.13396884 -109.97218944 758.99674306 -107.99414062 758.85888672 C-97.66411878 758.23194204 -87.35198457 758.20542656 -77.00708008 758.22705078 C-75.46229319 758.22889639 -73.91750608 758.23057109 -72.37271881 758.23207092 C-68.62347469 758.23607798 -64.87423875 758.2423943 -61.125 758.25 C-61.12593588 757.60449497 -61.12687177 756.95898994 -61.12783601 756.29392415 C-61.22949106 686.03288417 -61.32372676 615.77183572 -61.37905884 545.51074219 C-61.37988718 544.46159218 -61.38071552 543.41244216 -61.38156897 542.33149973 C-61.39952545 519.53191116 -61.41614668 496.73232181 -61.43139198 473.93273127 C-61.43887615 462.75219177 -61.44665545 451.57165248 -61.45458984 440.39111328 C-61.4553744 439.27850155 -61.45615895 438.16588981 -61.45696728 437.01956257 C-61.48254591 400.94160264 -61.52762161 364.86369901 -61.58278332 328.7857732 C-61.63935543 291.71816094 -61.67630721 254.65057984 -61.68848994 217.58292513 C-61.69021893 212.35015435 -61.69217275 207.11738368 -61.69426346 201.88461304 C-61.69487027 200.33975145 -61.69487027 200.33975145 -61.69548933 198.76368054 C-61.70258602 182.16955359 -61.7304315 165.57552288 -61.7659922 148.98143522 C-61.80128151 132.30810914 -61.81481647 115.63487869 -61.80600826 98.96151656 C-61.80143678 89.04945675 -61.81368204 79.13774633 -61.84978526 69.22574946 C-61.87224612 62.60845823 -61.8730094 55.99139638 -61.85599088 49.37408945 C-61.84691235 45.60095229 -61.84739949 41.82847686 -61.87429909 38.05541003 C-61.90304272 33.99288806 -61.88548417 29.93188606 -61.86328697 25.86932373 C-61.87904905 24.69510249 -61.89481114 23.52088124 -61.91105086 22.31107754 C-61.82952424 15.74557606 -60.99096449 11.78720536 -56.66789225 6.74556088 C-52.25182128 2.46496191 -47.7508128 1.22307132 -41.77001953 0.94238281 C-40.91511932 0.90167664 -40.06021912 0.86097046 -39.17941284 0.81903076 C-38.25653473 0.78078186 -37.33365662 0.74253296 -36.3828125 0.703125 C-35.41022491 0.66149231 -34.43763733 0.61985962 -33.43557739 0.57696533 C-22.29201659 0.13246492 -11.15155327 0.00824653 0 0 Z " fill="#1901AD" transform="translate(1714.125,621.75)"/>
<path d="M0 0 C1.54991135 0.09894562 1.54991135 0.09894562 3.13113403 0.19989014 C69.46580987 4.49598948 135.12895129 13.76027459 199.63525391 29.93408203 C203.66989782 30.93178985 207.71637038 31.86672598 211.76831055 32.79101562 C222.60364035 35.27811944 233.18646169 38.40599545 243.78662109 41.74658203 C246.84427765 42.70492579 249.90605675 43.64875322 252.9699707 44.58686829 C336.07176457 70.04885702 417.48538571 104.2373564 510.1875 165.8125 C510.8774707 166.2981543 511.56744141 166.78380859 512.27832031 167.28417969 C514.33860152 168.74215131 516.389615 170.21217976 518.4375 171.6875 C519.0577002 172.12771484 519.67790039 172.56792969 520.31689453 173.02148438 C525.57877957 176.85520599 529.13433566 180.59731133 531.1875 186.8125 C531.438733 189.86282353 531.438733 189.86282353 531.44049966 193.34900218 C531.44355276 193.99604961 531.44660585 194.64309704 531.44975147 195.30975197 C531.45756591 197.48520743 531.45111372 199.66038618 531.44476891 201.83584309 C531.44746141 203.41506672 531.45102874 204.99428905 531.45539337 206.57350895 C531.46488042 210.93504813 531.46184136 215.29650411 531.45683783 219.65804747 C531.45358011 224.39481982 531.46184629 229.13157404 531.46865618 233.86834067 C531.47898063 242.1774803 531.48179575 250.48659662 531.47974396 258.79574203 C531.47670031 271.15163844 531.48500378 283.50750895 531.49549321 295.86340032 C531.51486061 319.2123677 531.52046244 342.56132631 531.52160732 365.91030077 C531.52252549 383.93738616 531.52663734 401.96446809 531.53300858 419.99155235 C531.53480359 425.17571169 531.53658322 430.35987103 531.53835833 435.54403037 C531.53902148 437.47708048 531.53902148 437.47708048 531.53969802 439.44918212 C531.55201074 475.71031453 531.55991048 511.97144481 531.55901146 548.23257923 C531.5589799 549.61422676 531.55894843 550.99587429 531.55891704 552.37752181 C531.55877027 558.61566933 531.55859393 564.85381684 531.55840927 571.09196436 C531.55832703 573.87376357 531.55824673 576.65556278 531.55816665 579.43736199 C531.55812586 580.82970325 531.55808382 582.22204452 531.55804053 583.61438578 C531.55667991 627.64568823 531.57131612 671.67695852 531.59912109 715.70825195 C531.606123 726.80236457 531.61306186 737.89647722 531.61964989 748.9905901 C531.62005564 749.67367678 531.62046138 750.35676346 531.62087943 751.06054974 C531.63330714 772.11001844 531.64084011 793.1594845 531.64336586 814.20895672 C531.64344576 814.86971554 531.64352566 815.53047435 531.64360799 816.21125616 C531.645391 831.36640187 531.64577406 846.52154735 531.64519465 861.67669314 C531.64504538 866.86179554 531.64494797 872.04689795 531.64488602 877.23200035 C531.64485105 879.14713909 531.64485105 879.14713909 531.64481538 881.1009675 C531.64475376 901.67540183 531.65754257 922.24980906 531.67475055 942.82423533 C531.69167821 963.49048313 531.69370339 984.15669117 531.6805319 1004.82294206 C531.67312365 1017.11002258 531.67685652 1029.39698254 531.69641658 1041.68405037 C531.70837095 1049.88430785 531.70587637 1058.08447754 531.69147559 1066.2847309 C531.68367404 1070.96176074 531.68227097 1075.63855642 531.69839029 1080.31557021 C531.71292115 1084.56879034 531.70910757 1088.82158078 531.69054256 1093.07478161 C531.68709428 1094.60539746 531.6903752 1096.13604673 531.70114497 1097.66662858 C531.80768822 1113.89260101 531.80768822 1113.89260101 525.7402257 1120.35365872 C521.21999469 1124.41862986 516.6521866 1125.3924039 510.7109375 1125.2578125 C501.72102319 1123.67135703 493.42747419 1114.93873176 486.44238281 1109.43017578 C477.62288902 1102.50681851 468.43637792 1096.14425505 459.1875 1089.8125 C457.98305653 1088.97788823 456.77862788 1088.14325508 455.57421875 1087.30859375 C391.03389426 1043.03882212 318.29674146 1010.77051815 244.05703735 986.72377014 C239.03576826 985.0964632 234.03697543 983.4092316 229.04272461 981.70068359 C221.1205989 978.99984081 213.20990574 976.6811876 205.06640625 974.75390625 C201.15993383 973.80580972 197.30105255 972.73083216 193.4375 971.625 C152.12701479 959.95234241 109.97477091 951.06600987 67.45751953 945.13867188 C64.61953086 944.73089032 61.78661527 944.29340638 58.953125 943.85546875 C39.64996058 940.87730595 20.38438451 938.42601831 0.9375 936.625 C-0.42100067 936.49825897 -0.42100067 936.49825897 -1.8069458 936.36895752 C-11.66339851 935.4559298 -21.50743971 934.60360254 -31.40155029 934.22944641 C-38.1862828 933.91303986 -42.38244033 932.30650861 -47.1875 927.375 C-50.18164549 922.65346288 -51.0626182 918.96591397 -51.06549966 913.37743962 C-51.07101915 912.06645391 -51.07653864 910.7554682 -51.08222538 909.40475565 C-51.07824962 907.94858379 -51.07409069 906.49241241 -51.06976891 905.03624153 C-51.07246148 903.4840021 -51.07602884 901.93176398 -51.08039337 900.37952834 C-51.08987956 896.09291825 -51.08684164 891.80639282 -51.08183783 887.51977848 C-51.0785799 882.86424571 -51.08684646 878.20873137 -51.09365618 873.55320442 C-51.10398025 865.38673243 -51.10679581 857.22028417 -51.10474396 849.0538063 C-51.10170023 836.9101077 -51.11000395 824.76643543 -51.12049321 812.62274194 C-51.13986009 789.67503885 -51.14546242 766.72734467 -51.14660732 743.77963437 C-51.14752548 726.06289511 -51.1516373 708.34615936 -51.15800858 690.62942123 C-51.15980359 685.53455635 -51.16158321 680.43969147 -51.16335833 675.34482658 C-51.16380043 674.07832674 -51.16424252 672.81182689 -51.16469802 671.50694827 C-51.17701058 635.87097628 -51.18491049 600.23500548 -51.18401146 564.59903145 C-51.1839799 563.24122286 -51.18394843 561.88341426 -51.18391704 560.52560567 C-51.18377027 554.39508473 -51.18359393 548.26456378 -51.18340927 542.13404284 C-51.18332703 539.40023448 -51.18324673 536.66642612 -51.18316665 533.93261777 C-51.18312586 532.56429697 -51.18308382 531.19597617 -51.18304053 529.82765537 C-51.18167984 486.55354665 -51.19631752 443.27947065 -51.22412109 400.00537109 C-51.23112297 389.10153271 -51.23806182 378.19769431 -51.24464989 367.29385567 C-51.24505564 366.62248861 -51.24546138 365.95112156 -51.24587943 365.25941004 C-51.26764717 329.02283966 -51.2716044 292.78626764 -51.27019465 256.54969108 C-51.27004538 251.45419749 -51.26994797 246.35870389 -51.26988602 241.2632103 C-51.26986271 240.00851412 -51.2698394 238.75381795 -51.26981538 237.46110068 C-51.26975375 217.23980525 -51.28254402 197.01853737 -51.29975055 176.79725013 C-51.31667557 156.48724539 -51.31870546 136.17728111 -51.3055319 115.86727323 C-51.29812197 103.79105124 -51.30186151 91.7149519 -51.32141658 79.63874282 C-51.33336661 71.58031406 -51.33088128 63.52197466 -51.31647559 55.46355009 C-51.30867033 50.866705 -51.3072814 46.27009821 -51.32339029 41.67326941 C-51.33790833 37.49397651 -51.33412287 33.31512118 -51.31554256 29.13584802 C-51.31209083 27.63087318 -51.31538635 26.12586441 -51.32614497 24.62092406 C-51.38514704 15.77750607 -51.3612532 9.7727541 -45.21484375 3.0703125 C-34.13455016 -5.49844787 -13.3589605 -0.85575916 0 0 Z M-15.8125 34.8125 C-15.8125 320.2625 -15.8125 605.7125 -15.8125 899.8125 C-12.17412967 900.41889505 -8.83809088 900.95042339 -5.20703125 901.20703125 C-4.32474854 901.27317627 -3.44246582 901.33932129 -2.53344727 901.4074707 C-1.57365967 901.47925537 -0.61387207 901.55104004 0.375 901.625 C36.84565265 904.54367531 72.98741735 909.8471513 108.92539978 916.63851929 C113.03264415 917.41380954 117.14320687 918.16493866 121.25875854 918.89479065 C141.08095397 922.42544762 160.59559754 926.98306727 180.125 931.875 C181.31392853 932.17237061 182.50285706 932.46974121 183.72781372 932.77612305 C198.63003018 936.51613764 213.44968401 940.46959439 228.1875 944.8125 C229.43856537 945.17822113 229.43856537 945.17822113 230.71490479 945.55133057 C243.07491285 949.16891567 255.31637793 953.07782692 267.5 957.25 C268.36691467 957.5463031 269.23382935 957.8426062 270.12701416 958.14788818 C309.31846766 971.58046074 347.00475706 987.57774051 384.1875 1005.8125 C385.67697363 1006.53668401 387.1665387 1007.26068002 388.65625 1007.984375 C392.52632545 1009.87712628 396.36388523 1011.82766486 400.1875 1013.8125 C401.08871582 1014.28026855 401.98993164 1014.74803711 402.91845703 1015.22998047 C419.42162794 1023.84809573 435.38217337 1033.16817674 451.20166016 1042.96630859 C453.69355291 1044.5070848 456.19277859 1046.03386339 458.69921875 1047.55078125 C467.92012585 1053.16795686 476.75368422 1059.30203924 485.56176758 1065.54516602 C486.50689209 1066.21217529 487.4520166 1066.87918457 488.42578125 1067.56640625 C489.694823 1068.46854858 489.694823 1068.46854858 490.98950195 1069.38891602 C493.21580959 1070.96099045 493.21580959 1070.96099045 496.1875 1071.8125 C496.58171087 988.80946958 496.94739867 905.80632607 497.16139221 822.8026123 C497.16456752 821.57412034 497.16774284 820.34562838 497.17101437 819.07990939 C497.23985136 792.38142559 497.30356553 765.68293185 497.36200258 738.98442331 C497.3906913 725.89146881 497.42051204 712.798517 497.45092773 699.70556641 C497.45393519 698.40266088 497.45694265 697.09975535 497.46004124 695.75736784 C497.55805152 653.5267458 497.73080993 611.29683159 497.94233608 569.06663837 C498.15931342 525.66931417 498.30087121 482.27238167 498.34754477 438.8745242 C498.35417233 432.74482442 498.36166197 426.61512597 498.36967659 420.48542786 C498.37122732 419.27901625 498.37277805 418.07260465 498.37437577 416.82963512 C498.4015551 397.40987218 498.50822675 377.99132049 498.64463678 358.5720515 C498.78008217 339.04855002 498.83175534 319.52624914 498.79803168 300.0022943 C498.78053722 288.40176825 498.82715366 276.80563626 498.96584349 265.20590396 C499.05220327 257.45315936 499.05470075 249.70328571 498.98963171 241.95034151 C498.95494053 237.53289666 498.95611277 233.12374153 499.05981319 228.70719308 C499.99746216 211.41228862 499.99746216 211.41228862 493.9515719 195.88304746 C488.60732759 190.86247237 482.64653106 187.38669484 476.06592191 184.22713846 C472.46964377 182.45970007 469.14379101 180.37810761 465.7764478 178.21369293 C462.9535374 176.40464332 460.06929158 174.70614487 457.18408203 172.99902344 C455.32039992 171.89147941 453.46879685 170.76675952 451.62109375 169.6328125 C387.45962921 130.37304929 317.43989762 100.56723305 245.51806641 78.82666016 C242.4990921 77.90738005 239.48856742 76.96586915 236.48046875 76.01171875 C201.71731985 65.05359997 166.06814263 57.10858844 130.15937805 51.00621033 C125.32715229 50.18393457 120.49952686 49.33871001 115.67398071 48.4781189 C84.68267479 42.95326684 53.86673309 39.18973261 22.5 36.5625 C21.4486084 36.47328278 20.3972168 36.38406555 19.31396484 36.29214478 C16.26845454 36.03633313 13.22232802 35.79000073 10.17578125 35.546875 C9.28937454 35.47210434 8.40296783 35.39733368 7.48970032 35.32029724 C-0.3428707 34.71498585 -7.87556587 34.8125 -15.8125 34.8125 Z " fill="#1901AD" transform="translate(461.8125,409.1875)"/>
<path d="M0 0 C17.1603086 -0.60924297 17.1603086 -0.60924297 22.45141602 4.09396362 C27.03600184 9.20084403 28.57570188 13.37258372 28.58021718 20.26665229 C28.58348938 21.57002035 28.58676157 22.87338841 28.59013292 24.21625248 C28.5887227 25.6742012 28.58722068 27.13214984 28.58563709 28.59009838 C28.58758905 30.13629223 28.58997752 31.68248557 28.59276506 33.22867814 C28.59918774 37.50781469 28.59932489 41.78693252 28.59848765 46.06607298 C28.59865671 50.71006141 28.60455781 55.35404304 28.60972852 59.9980281 C28.61907147 69.22239857 28.62297941 78.44676425 28.62524748 87.67113886 C28.62820513 98.71441043 28.63689991 109.75767561 28.64566176 120.80094383 C28.66652441 147.49541247 28.67697853 174.18988222 28.68579137 200.88435711 C28.68999499 213.50649605 28.69521734 226.12863452 28.7004759 238.75077305 C28.71808654 281.25986635 28.73314045 323.76896006 28.74044613 366.27805644 C28.74103011 369.66721528 28.74162738 373.05637412 28.74222375 376.44553297 C28.74234187 377.11784073 28.74245999 377.7901485 28.74258169 378.48282923 C28.74377909 385.294357 28.74498785 392.10588475 28.74621422 398.91741251 C28.74645946 400.28315355 28.74670331 401.64889459 28.74694579 403.01463563 C28.75473642 446.88227334 28.77712158 490.74988431 28.80962222 534.61751033 C28.84445699 581.65147712 28.86509633 628.68542741 28.86844033 675.71940929 C28.86885789 680.80456055 28.86933745 685.8897118 28.86986351 690.97486305 C28.8699867 692.2270185 28.87010989 693.47917395 28.87023682 694.76927351 C28.87257196 714.94771128 28.88824933 735.12611775 28.90870536 755.30454436 C28.92892867 775.57448042 28.93445723 795.84437876 28.92493472 816.11432304 C28.91970623 828.16588744 28.9256607 840.21732656 28.94746939 852.26887301 C28.96092839 860.31220874 28.95994405 868.35545778 28.94706744 876.39879429 C28.94013807 880.98623768 28.93961233 885.57344072 28.95662753 890.16086312 C28.97197612 894.33281529 28.96896947 898.50433282 28.95121725 902.67627177 C28.94806297 904.17747503 28.95163765 905.67871109 28.96270899 907.17987684 C29.07204687 923.03576877 29.07204687 923.03576877 23.07493158 929.60079823 C16.77833161 935.34968091 9.63501011 935.45165761 1.57641602 935.90646362 C-12.14610134 936.80185862 -25.80949955 938.17069354 -39.48608398 939.59396362 C-40.53560242 939.7016507 -41.58512085 939.80933777 -42.66644287 939.92028809 C-57.23000348 941.39682521 -57.23000348 941.39682521 -71.6940918 943.61447144 C-75.18164522 944.20030405 -78.68271481 944.62708948 -82.19311523 945.04708862 C-90.90915192 946.1010604 -99.57129498 947.43342977 -108.23608398 948.84396362 C-109.0383844 948.97435028 -109.84068481 949.10473694 -110.66729736 949.23907471 C-126.05825301 951.75363788 -141.32759907 954.6903372 -156.54858398 958.09396362 C-157.67321045 958.3453006 -157.67321045 958.3453006 -158.82055664 958.60171509 C-220.23887266 972.35887967 -280.3869695 989.92022319 -338.54858398 1014.09396362 C-339.59836426 1014.52886108 -340.64814453 1014.96375854 -341.72973633 1015.41183472 C-393.55095895 1037.02979911 -443.70842085 1063.60258408 -489.54858398 1096.09396362 C-490.31638184 1096.6364978 -491.08417969 1097.17903198 -491.87524414 1097.73800659 C-499.76277499 1103.32698864 -507.54052094 1109.01905935 -515.11108398 1115.03146362 C-516.24343817 1115.92267126 -517.37622986 1116.81332338 -518.50952148 1117.70333862 C-520.35904584 1119.15823439 -522.20004296 1120.62417314 -524.02514648 1122.10958862 C-528.88790779 1125.78672968 -532.76677752 1126.99223924 -538.90014648 1126.60568237 C-543.17529491 1125.77965812 -546.5565875 1124.29253448 -549.54858398 1121.09396362 C-554.45422243 1113.65060422 -554.10904029 1106.27579874 -554.05194855 1097.67024231 C-554.05612347 1096.08410763 -554.06205024 1094.49797676 -554.06956601 1092.91185439 C-554.08515972 1088.5450297 -554.07581358 1084.17855818 -554.0624542 1079.81173916 C-554.05231932 1075.06411043 -554.06534231 1070.31653638 -554.07542753 1065.56891537 C-554.0898883 1057.24536205 -554.08942746 1048.92191247 -554.07923889 1040.59835434 C-554.06412939 1028.22109429 -554.07183326 1015.84392199 -554.08407212 1003.46666256 C-554.10515451 981.36287754 -554.10330179 959.25913872 -554.09175647 937.15534928 C-554.08170244 917.81219974 -554.07906361 898.46906715 -554.08384705 879.12591553 C-554.08415259 877.84386932 -554.08445813 876.56182312 -554.08477293 875.24092703 C-554.08601824 870.03695426 -554.08729183 864.83298149 -554.08861198 859.62900874 C-554.09225846 845.08149447 -554.09456245 830.53398013 -554.09575653 815.98646545 C-554.09581111 815.32399047 -554.0958657 814.66151548 -554.09592193 813.9789655 C-554.09755919 792.86770355 -554.09305072 771.75644748 -554.08435822 750.64518738 C-554.08407722 749.96040113 -554.08379622 749.27561488 -554.08350671 748.57007754 C-554.07892685 737.44939301 -554.07404903 726.32870861 -554.06914602 715.20802422 C-554.04972047 671.10130287 -554.05062209 626.99463008 -554.07006836 582.88790894 C-554.07495307 571.77285263 -554.07979725 560.65779631 -554.08435822 549.54273987 C-554.08464001 548.85835761 -554.0849218 548.17397536 -554.08521213 547.46885425 C-554.09383606 526.37972265 -554.09749412 505.2905951 -554.09575653 484.20146179 C-554.09570219 483.53947247 -554.09564786 482.87748314 -554.09559187 482.19543353 C-554.09428592 467.0122305 -554.09147099 451.82902798 -554.0876193 436.64582539 C-554.08633639 431.45122084 -554.08508504 426.25661628 -554.08384705 421.06201172 C-554.08353074 419.78292576 -554.08321443 418.5038398 -554.08288853 417.18599366 C-554.07833467 397.85289083 -554.08366713 378.51980678 -554.09376526 359.18670654 C-554.10518752 337.2086651 -554.10237457 315.23067715 -554.08064228 293.25264239 C-554.06887494 280.94555528 -554.06816233 268.63858397 -554.08322698 256.3314998 C-554.09217381 248.11800458 -554.08665555 239.9046025 -554.0692079 231.69112112 C-554.05966309 227.00659045 -554.0565005 222.32229039 -554.07083184 217.63776672 C-554.08373194 213.37776757 -554.07829488 209.11820409 -554.05810919 204.85823683 C-554.05407398 203.3251789 -554.05676239 201.79208508 -554.06693295 200.25905557 C-554.1222137 191.2915203 -554.06489726 184.00545431 -547.67358398 177.05490112 C-546.97233398 176.53154175 -546.27108398 176.00818237 -545.54858398 175.46896362 C-544.22600586 174.47896362 -544.22600586 174.47896362 -542.87670898 173.46896362 C-541.76852984 172.67562386 -540.65901481 171.88414865 -539.54858398 171.09396362 C-538.86731445 170.60154175 -538.18604492 170.10911987 -537.48413086 169.60177612 C-476.84321218 125.8607856 -408.28024044 91.84794317 -338.23608398 66.03146362 C-337.40845551 65.72556305 -336.58082703 65.41966248 -335.7281189 65.10449219 C-333.40385025 64.24884763 -331.07674042 63.40165031 -328.74780273 62.55880737 C-328.05912109 62.30658417 -327.37043945 62.05436096 -326.66088867 61.79449463 C-323.80891747 60.77582329 -321.60349694 60.09396362 -318.54858398 60.09396362 C-318.59499023 58.42333862 -318.59499023 58.42333862 -318.64233398 56.71896362 C-318.64233398 51.74757575 -317.88240864 46.98423256 -317.04858398 42.09396362 C-316.90549805 41.22384644 -316.76241211 40.35372925 -316.61499023 39.45724487 C-316.26520372 37.33520667 -315.90769748 35.21444334 -315.54858398 33.09396362 C-315.21858398 33.09396362 -314.88858398 33.09396362 -314.54858398 33.09396362 C-314.38211594 40.01173458 -315.00543509 46.54393139 -316.00952148 53.38302612 C-316.16015045 54.44451874 -316.31077942 55.50601135 -316.4659729 56.59967041 C-316.94598685 59.97363578 -317.4345258 63.34629856 -317.92358398 66.71896362 C-318.24448564 68.95976475 -318.56480319 71.2006496 -318.88452148 73.44161987 C-319.34919077 76.69790833 -319.81428012 79.95412838 -320.28192139 83.20999146 C-321.42340649 91.16472065 -322.51433886 99.12457562 -323.54858398 107.09396362 C-323.87858398 107.09396362 -324.20858398 107.09396362 -324.54858398 107.09396362 C-324.54858398 104.45396362 -324.54858398 101.81396362 -324.54858398 99.09396362 C-349.85949096 109.13438718 -374.91801249 119.470346 -399.54858398 131.09396362 C-400.6776416 131.62425171 -401.80669922 132.15453979 -402.9699707 132.70089722 C-418.46119339 139.99152927 -433.64631059 147.66418916 -448.54858398 156.09396362 C-449.57838379 156.67404175 -450.60818359 157.25411987 -451.66918945 157.85177612 C-486.54497551 176.24314171 -486.54497551 176.24314171 -517.54858398 200.09396362 C-517.85165396 202.75812174 -517.85165396 202.75812174 -517.79698098 205.93365014 C-517.80147556 207.18808452 -517.80597015 208.44251891 -517.81060094 209.73496646 C-517.80546863 211.14278044 -517.80015476 212.55059376 -517.79467964 213.95840645 C-517.79615754 215.44787172 -517.79851323 216.93733634 -517.80167264 218.426799 C-517.80784537 222.55306249 -517.80143193 226.67922837 -517.79311637 230.80548463 C-517.78627749 235.28186622 -517.7909839 239.7582374 -517.79427135 244.23462093 C-517.7984294 252.09100313 -517.79511333 259.94735512 -517.78699493 267.80373383 C-517.77495647 279.48599422 -517.77432038 291.16823545 -517.77607891 302.85050091 C-517.77871077 322.49909587 -517.77200853 342.14767741 -517.7600441 361.79626846 C-517.74822273 381.25965567 -517.74051477 400.7230373 -517.73833847 420.18642807 C-517.73820099 421.39518498 -517.73806351 422.6039419 -517.73792187 423.84932781 C-517.73724523 429.98762905 -517.73664245 436.1259303 -517.73606811 442.26423155 C-517.73186379 485.7773036 -517.7183793 529.29036835 -517.69946289 572.80343628 C-517.68110344 615.08403484 -517.66693161 657.36463141 -517.65844727 699.64523315 C-517.65818421 700.94778686 -517.65792116 702.25034056 -517.65765014 703.59236559 C-517.65501317 716.67277107 -517.65246153 729.75317656 -517.64997242 742.83358207 C-517.64489956 769.48148239 -517.63925706 796.12938258 -517.63327026 822.77728271 C-517.63299568 824.00259448 -517.6327211 825.22790624 -517.6324382 826.49034866 C-517.61402713 908.35822335 -517.5823356 990.22609399 -517.54858398 1072.09396362 C-517.03403593 1071.7206318 -516.51948788 1071.34729998 -515.98934746 1070.96265507 C-513.63216354 1069.25339446 -511.27373464 1067.54585958 -508.9152832 1065.83834839 C-508.10592819 1065.25107216 -507.29657318 1064.66379593 -506.46269226 1064.05872345 C-500.645915 1059.84998369 -494.76625894 1055.83258495 -488.67358398 1052.03146362 C-487.75778564 1051.45476929 -486.8419873 1050.87807495 -485.8984375 1050.28390503 C-476.53340411 1044.4111228 -467.07901567 1038.69379715 -457.54858398 1033.09396362 C-456.74195313 1032.61781616 -455.93532227 1032.1416687 -455.10424805 1031.65109253 C-440.66961145 1023.15860936 -425.86967899 1015.42020057 -410.94897461 1007.82785034 C-407.96057826 1006.30404284 -404.98001505 1004.76626358 -402.00170898 1003.22286987 C-355.56253896 979.34312664 -305.64423773 960.67745751 -255.54858398 946.09396362 C-254.82759521 945.88322205 -254.10660645 945.67248047 -253.36376953 945.45535278 C-239.03490571 941.27652786 -224.63476329 937.41235684 -210.17358398 933.71896362 C-208.52231003 933.29659424 -208.52231003 933.29659424 -206.837677 932.86569214 C-186.86396632 927.7755287 -166.81661647 923.36815584 -146.57678223 919.48532104 C-143.45300849 918.88256338 -140.3330123 918.26096087 -137.21264648 917.64083862 C-135.01232656 917.20752553 -132.8118205 916.77515591 -130.61108398 916.34396362 C-129.27581665 916.08196167 -129.27581665 916.08196167 -127.91357422 915.81466675 C-124.795697 915.21805156 -121.67365914 914.65179694 -118.54858398 914.09396362 C-117.77743256 913.95550018 -117.00628113 913.81703674 -116.21176147 913.67437744 C-98.83853071 910.58392246 -81.3829174 908.31227613 -63.87384033 906.1690979 C-60.99620053 905.81556516 -58.11921416 905.45686907 -55.24222851 905.09805775 C-52.42746808 904.74729254 -49.61245852 904.39856365 -46.79735756 904.05054283 C-44.8438602 903.80900782 -42.89045718 903.56671028 -40.9370575 903.3243866 C-29.69633529 901.94919011 -18.92951928 901.09396362 -7.54858398 901.09396362 C-7.54858398 615.64396362 -7.54858398 330.19396362 -7.54858398 36.09396362 C-27.64525458 37.35000554 -47.60563617 38.67201001 -67.61108398 40.78146362 C-68.84827179 40.91123596 -70.08545959 41.0410083 -71.36013794 41.17471313 C-126.74022974 47.03019961 -181.75965589 56.51202975 -235.54858398 71.09396362 C-237.16436496 71.52144192 -238.78024 71.94856495 -240.39624023 72.37521362 C-256.88255274 76.79312637 -273.35903052 81.6974458 -289.54858398 87.09396362 C-290.86858398 95.67396362 -292.18858398 104.25396362 -293.54858398 113.09396362 C-293.87858398 113.09396362 -294.20858398 113.09396362 -294.54858398 113.09396362 C-294.73961206 105.90212048 -294.18887843 99.02073004 -293.19311523 91.90255737 C-292.98008759 90.32429924 -292.98008759 90.32429924 -292.76275635 88.7141571 C-292.30235502 85.31895475 -291.83207233 81.9252121 -291.36108398 78.53146362 C-291.04169022 76.19589292 -290.72260003 73.86028068 -290.40380859 71.52462769 C-287.95751378 53.68803968 -285.35555516 35.87735715 -282.54858398 18.09396362 C-282.21858398 18.09396362 -281.88858398 18.09396362 -281.54858398 18.09396362 C-281.3590146 24.72889223 -282.0929703 31.03380482 -283.04858398 37.59396362 C-283.19166992 38.60716675 -283.33475586 39.62036987 -283.48217773 40.66427612 C-283.83273981 43.14158144 -284.18831245 45.61805499 -284.54858398 48.09396362 C-283.70602051 47.81516357 -283.70602051 47.81516357 -282.84643555 47.5307312 C-270.25681537 43.38739271 -257.66565577 39.73129692 -244.77954102 36.63937378 C-241.52095808 35.84273619 -238.28659512 34.97070666 -235.04858398 34.09396362 C-175.29234001 18.08668802 -114.21311936 8.50057591 -52.61108398 3.28146362 C-51.36935425 3.17605255 -50.12762451 3.07064148 -48.8482666 2.96203613 C-32.573823 1.59718479 -16.3193182 0.60167617 0 0 Z " fill="#1A03AD" transform="translate(1585.548583984375,407.9060363769531)"/>
<path d="M0 0 C1.18823868 0.0028299 2.37647736 0.00565979 3.60072327 0.00857544 C7.28731685 0.0195087 10.97363986 0.04455476 14.66015625 0.0703125 C17.20507454 0.08037724 19.74999676 0.08949682 22.29492188 0.09765625 C28.43758774 0.11935863 34.58010268 0.15255117 40.72265625 0.1953125 C40.72290045 0.84081753 40.72314465 1.48632256 40.72339626 2.15138835 C40.75011829 72.41245585 40.7817733 142.67352048 40.83929443 212.93457031 C40.8405807 214.50829533 40.8405807 214.50829533 40.84189295 216.11381277 C40.86055757 238.91340306 40.88010998 261.7129925 40.9005772 284.51258123 C40.91060859 295.69312041 40.92044374 306.87365977 40.93017578 318.05419922 C40.93114759 319.16681095 40.93211939 320.27942269 40.93312065 321.42574993 C40.96454077 357.50367844 40.98299772 393.58159947 40.99474872 429.6595393 C41.00689041 466.7271727 41.03207721 503.79477482 41.07373239 540.86238737 C41.07960668 546.09515793 41.08533148 551.32792864 41.09096527 556.56069946 C41.09207873 557.59060719 41.09319219 558.62051491 41.09433939 559.68163196 C41.11189492 576.27571906 41.11565501 592.86978214 41.11428546 609.46387728 C41.11320272 626.13721187 41.12658389 642.81048477 41.15482053 659.48379594 C41.17116463 669.39576196 41.17632748 679.30758854 41.165628 689.21956304 C41.15957658 695.83683273 41.16795124 702.45398165 41.18814855 709.07122305 C41.19924883 712.84421052 41.20398883 716.61691398 41.1911687 720.38990247 C41.1775116 724.45217823 41.19463762 728.51374062 41.21484756 732.57598877 C41.201492 734.33732064 41.201492 734.33732064 41.18786663 736.13423496 C41.24972581 742.57901351 41.75578837 747.91194295 45.72265625 753.1953125 C51.23984855 757.56361085 55.88280784 757.73856329 62.75 757.62890625 C64.80940931 757.63429209 66.86881695 757.64034803 68.92822266 757.64697266 C70.56709442 757.64204803 70.56709442 757.64204803 72.23907471 757.63702393 C94.16969621 757.61002685 115.9944373 758.58962294 137.84765625 760.3203125 C138.51776985 760.37322575 139.18788345 760.42613899 139.87830353 760.48065567 C166.97221946 762.63631964 193.8664644 766.03256667 220.72265625 770.1953125 C221.58011444 770.32767303 222.43757263 770.46003357 223.3210144 770.59640503 C253.50284281 775.26756961 283.35139345 781.13401062 313.03515625 788.3203125 C313.7133139 788.48439606 314.39147156 788.64847961 315.09017944 788.8175354 C329.0395521 792.20287655 342.89137142 795.886961 356.66015625 799.9453125 C358.27567383 800.41904297 358.27567383 800.41904297 359.92382812 800.90234375 C362.52392095 801.66503765 365.12352173 802.42936057 367.72265625 803.1953125 C364.59626348 804.17211537 362.35817595 804.16898939 359.140625 803.62890625 C358.17390869 803.47599121 357.20719238 803.32307617 356.21118164 803.16552734 C355.12184326 802.98973145 354.03250488 802.81393555 352.91015625 802.6328125 C338.08060349 800.38415626 323.19421888 798.69790889 308.28515625 797.0703125 C306.48032776 796.87314636 306.48032776 796.87314636 304.63903809 796.67199707 C287.843497 794.84965007 271.07095714 793.21459706 254.19311523 792.3972168 C251.72265625 792.1953125 251.72265625 792.1953125 249.02636719 791.7199707 C244.65128291 791.02516904 240.28586423 790.75515716 235.8671875 790.4765625 C234.8932756 790.41376099 233.91936371 790.35095947 232.91593933 790.28625488 C230.83900156 790.15355651 228.76195598 790.02253637 226.68481445 789.89306641 C223.64552684 789.70224221 220.6069798 789.50190863 217.56835938 789.30078125 C186.71555823 787.31776413 155.85042636 787.02701481 124.94433594 787.06494141 C120.28759602 787.07062965 115.63091341 787.0672474 110.97417545 787.06150246 C92.46915981 787.04215997 73.97547358 787.14513048 55.4765625 787.6484375 C54.73196903 787.6683865 53.98737556 787.68833549 53.22021866 787.70888901 C34.98336042 788.21108807 16.7961472 789.36797352 -1.375 790.9921875 C-2.14015427 791.06055817 -2.90530853 791.12892883 -3.69364929 791.19937134 C-7.39668726 791.53242199 -11.09866718 791.87387892 -14.79956055 792.22998047 C-15.483806 792.29397034 -16.16805145 792.35796021 -16.87303162 792.42388916 C-18.71549323 792.59627825 -20.55747639 792.77376014 -22.39941406 792.95166016 C-27.34962766 793.26268466 -32.31736886 793.1953125 -37.27734375 793.1953125 C-37.27734375 532.1653125 -37.27734375 271.1353125 -37.27734375 2.1953125 C-10.84408811 -0.10323147 -10.84408811 -0.10323147 0 0 Z " fill="#FDFCFE" transform="translate(296.27734375,656.8046875)"/>
<path d="M0 0 C8.26769531 -0.02330819 16.53537658 -0.04100834 24.80309677 -0.05181217 C28.64331992 -0.05700096 32.48352038 -0.06402464 36.32373047 -0.07543945 C40.03903675 -0.08641219 43.75432138 -0.09230688 47.46964264 -0.09487724 C48.8776 -0.09670585 50.28555635 -0.10027574 51.69350433 -0.10573006 C53.68595698 -0.11313228 55.67843205 -0.11340967 57.67089844 -0.11352539 C59.36300446 -0.11685631 59.36300446 -0.11685631 61.08929443 -0.12025452 C66.40348081 0.04315715 71.70166692 0.55847224 77 1 C77 262.03 77 523.06 77 792 C67.52907298 792 58.69707787 791.69779656 49.375 790.625 C38.03201524 789.41414764 26.70239602 788.50701216 15.3125 787.875 C14.00651855 787.79975098 12.70053711 787.72450195 11.35498047 787.64697266 C-18.98579448 785.99445451 -49.37282545 785.79281013 -79.75 785.8125 C-80.67938133 785.81276688 -81.60876266 785.81303375 -82.56630707 785.81330872 C-111.75836993 785.82379063 -140.85809614 786.15066848 -170 788 C-172.44026624 788.15170372 -174.88053321 788.30339571 -177.32080078 788.45507812 C-211.94851979 790.59135215 -211.94851979 790.59135215 -246.49490356 793.73498535 C-249.17220918 794.01821804 -251.85044124 794.29092792 -254.52905273 794.56152344 C-260.39555969 795.15474648 -266.26061515 795.76116707 -272.125 796.375 C-273.65941238 796.53541275 -273.65941238 796.53541275 -275.224823 796.69906616 C-288.41425405 798.08702755 -301.53762478 799.60828725 -314.61572266 801.83154297 C-319.1415485 802.60010961 -323.38553957 803.20730521 -328 803 C-325.16829437 801.11219625 -323.4321048 800.44890815 -320.203125 799.6328125 C-319.25187744 799.38901855 -318.30062988 799.14522461 -317.32055664 798.89404297 C-315.8006311 798.5133667 -315.8006311 798.5133667 -314.25 798.125 C-312.14965159 797.58888627 -310.04939111 797.05242795 -307.94921875 796.515625 C-306.41467041 796.12600586 -306.41467041 796.12600586 -304.84912109 795.72851562 C-301.24513027 794.80698104 -297.65374865 793.84498356 -294.0625 792.875 C-287.8853252 791.22185741 -281.69070929 789.64985068 -275.48291016 788.11669922 C-272.51269786 787.38062118 -269.54726743 786.6284 -266.58447266 785.86303711 C-254.15058194 782.66927842 -241.65671299 779.97853659 -229.0625 777.5 C-228.08410156 777.30612701 -227.10570312 777.11225403 -226.09765625 776.9125061 C-200.18312502 771.78051694 -174.22902175 767.22081014 -148 764 C-146.769328 763.84887756 -146.769328 763.84887756 -145.51379395 763.69470215 C-113.30263494 759.7671684 -81.27170023 757.2759398 -48.82421875 756.76953125 C-47.70558945 756.75109161 -46.58696014 756.73265198 -45.43443298 756.71365356 C-39.92779884 756.62486697 -34.42202491 756.55391978 -28.91479492 756.51660156 C-26.90933805 756.49189071 -24.9038853 756.46684227 -22.8984375 756.44140625 C-21.98466843 756.44139114 -21.07089935 756.44137604 -20.12944031 756.44136047 C-15.01001192 756.360706 -11.42856502 755.85305907 -7 753 C-2.82892705 748.48133764 -0.75141267 744.9004252 -0.74519098 738.73265624 C-0.73926297 737.65720467 -0.73333497 736.5817531 -0.72722733 735.47371209 C-0.73087701 734.29058713 -0.73452669 733.10746218 -0.73828697 731.88848495 C-0.73229288 729.99733686 -0.73229288 729.99733686 -0.72617769 728.06798375 C-0.71531206 724.55068195 -0.71694793 721.03347783 -0.72052841 717.51616512 C-0.72222968 713.69641506 -0.71238418 709.87669242 -0.70397437 706.05695367 C-0.6908263 699.35658867 -0.68511504 692.65624895 -0.68421364 685.95587158 C-0.68283988 675.99259846 -0.67007009 666.02936298 -0.6549259 656.06610244 C-0.629778 639.3078433 -0.61393084 622.54958732 -0.60334396 605.79131317 C-0.59282804 589.19322782 -0.57820306 572.59515452 -0.55806351 555.99707794 C-0.55681464 554.9659109 -0.55556577 553.93474385 -0.55427906 552.87232932 C-0.5479155 547.63577166 -0.54147827 542.3992141 -0.53501268 537.16265658 C-0.48932318 500.05082681 -0.45288703 462.93899313 -0.421875 425.82714844 C-0.39172197 389.76854886 -0.35738852 353.70995724 -0.31738281 317.65136719 C-0.31615181 316.54031569 -0.31492081 315.4292642 -0.3136525 314.28454448 C-0.30128588 303.12713333 -0.28883414 291.96972227 -0.27632002 280.81231129 C-0.25082817 258.08241461 -0.22590457 235.35251731 -0.20132446 212.62261963 C-0.20019355 211.57748503 -0.19906264 210.53235043 -0.19789747 209.45554509 C-0.12241409 139.6370393 -0.060178 69.81852045 0 0 Z " fill="#FEFEFE" transform="translate(1688,658)"/>
<path d="M0 0 C3.11000687 1.64345317 5.47948792 2.90077101 6.875 6.25 C7.07122177 11.82502876 6.62115989 17.06444785 5.7734375 22.56640625 C5.65653061 23.35967316 5.53962372 24.15294006 5.41917419 24.97024536 C5.1661729 26.68649798 4.91086388 28.4024117 4.6534729 30.11801147 C3.95348773 34.79267988 3.27458586 39.47038219 2.59765625 44.1484375 C2.45573349 45.12880478 2.31381073 46.10917206 2.16758728 47.11924744 C0.1446235 61.20295304 -1.60826324 75.3220888 -3.38299561 89.43876648 C-3.61278629 91.26430672 -3.84328405 93.08975812 -4.07452393 94.91511536 C-4.69500558 99.81382958 -5.30322835 104.71369024 -5.89697266 109.61572266 C-6.15637699 111.70868347 -6.41597467 113.80162033 -6.67578125 115.89453125 C-6.79124802 116.87185715 -6.90671478 117.84918304 -7.02568054 118.85612488 C-7.14006973 119.76574478 -7.25445892 120.67536469 -7.37231445 121.61254883 C-7.51827812 122.81346916 -7.51827812 122.81346916 -7.66719055 124.03865051 C-8.15355192 126.3879139 -9.03737305 128.12350397 -10.125 130.25 C-10.64493529 133.08919926 -11.08282517 135.8877619 -11.45703125 138.74609375 C-11.57397842 139.59505722 -11.6909256 140.44402069 -11.81141663 141.31871033 C-12.19380368 144.107401 -12.56595031 146.89734636 -12.9375 149.6875 C-13.19951251 151.62262908 -13.46205058 153.55768706 -13.72509766 155.49267578 C-14.12850966 158.46444677 -14.53086007 161.4363424 -14.92999268 164.40869141 C-15.68691318 170.04526983 -16.4620686 175.67868692 -17.26402283 181.30903625 C-17.73702345 184.63024714 -18.20318679 187.95239996 -18.66854858 191.27468872 C-18.88643978 192.81974818 -19.10708292 194.3644225 -19.33071899 195.90866089 C-19.64297668 198.07082633 -19.94374592 200.23432749 -20.2421875 202.3984375 C-20.41347168 203.60677246 -20.58475586 204.81510742 -20.76123047 206.06005859 C-21.13591774 209.39334671 -21.09497344 212.63428798 -21.01953125 215.98608398 C-20.96468836 225.20777115 -22.40539447 234.21458401 -23.6953125 243.32421875 C-23.971827 245.32557802 -24.2474782 247.32705673 -24.52233887 249.3286438 C-25.11321611 253.6206263 -25.70922348 257.91185144 -26.30938721 262.20254517 C-27.7561611 272.5483947 -29.17697627 282.89782601 -30.60001755 293.24696159 C-31.09777858 296.86522151 -31.59656946 300.48333859 -32.09536743 304.10145569 C-34.46351766 321.30251707 -36.76728688 338.511494 -39.03125 355.7265625 C-39.18874599 356.92366915 -39.34624199 358.12077579 -39.50851059 359.3541584 C-40.88948401 369.85525004 -42.26637252 380.35687405 -43.63775635 390.85922241 C-49.09098232 432.61331647 -49.09098232 432.61331647 -51.3984375 448.13671875 C-51.54809967 449.17625198 -51.69776184 450.21578522 -51.85195923 451.28681946 C-51.99281952 452.2023912 -52.13367981 453.11796295 -52.27880859 454.0612793 C-52.39533783 454.83336227 -52.51186707 455.60544525 -52.63192749 456.40092468 C-53.125 458.25 -53.125 458.25 -55.125 460.25 C-55.125 459.26 -55.125 458.27 -55.125 457.25 C-57.35346409 456.93252863 -59.58282647 456.62136276 -61.8125 456.3125 C-63.67455078 456.05146484 -63.67455078 456.05146484 -65.57421875 455.78515625 C-71.40235159 455.0392981 -77.26593014 454.66654281 -83.125 454.25 C-82.97353516 455.16813477 -82.82207031 456.08626953 -82.66601562 457.03222656 C-82.10439035 460.44604422 -81.54562103 463.86030408 -80.98876953 467.27490234 C-80.74739675 468.75132619 -80.50489441 470.22756583 -80.26123047 471.70361328 C-79.91074683 473.82797329 -79.56436018 475.95296739 -79.21875 478.078125 C-78.90454102 479.9947998 -78.90454102 479.9947998 -78.58398438 481.95019531 C-78.125 485.25 -78.125 485.25 -78.125 489.25 C-76.454375 489.2190625 -76.454375 489.2190625 -74.75 489.1875 C-71.125 489.25 -71.125 489.25 -69.125 490.25 C-68.465 488.27 -67.805 486.29 -67.125 484.25 C-65.9711841 487.7114477 -66.20937563 488.04774007 -67.7421875 491.15625 C-68.10183594 491.90003906 -68.46148438 492.64382813 -68.83203125 493.41015625 C-69.41017578 494.56837891 -69.41017578 494.56837891 -70 495.75 C-70.74869763 497.28061392 -71.49614481 498.81184028 -72.2421875 500.34375 C-72.57847168 501.02115234 -72.91475586 501.69855469 -73.26123047 502.39648438 C-74.23984955 504.40439219 -74.23984955 504.40439219 -75.125 507.25 C-75.785 507.25 -76.445 507.25 -77.125 507.25 C-77.96286238 501.98496613 -78.79898371 496.71965971 -79.63354492 491.45410156 C-79.91725475 489.66561551 -80.20142691 487.87720272 -80.48608398 486.08886719 C-80.89690969 483.50735642 -81.30603105 480.92558022 -81.71484375 478.34375 C-81.84092514 477.55383667 -81.96700653 476.76392334 -82.09690857 475.95007324 C-84.95527079 457.85010984 -83.91666066 441.36575617 -81.4375 423.3125 C-81.13026522 421.01680584 -80.82399303 418.72098269 -80.51855469 416.42504883 C-79.81150373 411.1259631 -79.09759129 405.82785582 -78.37939453 400.53027344 C-77.08787335 390.99903287 -75.81677376 381.46509315 -74.54613876 371.93104935 C-72.06801244 353.3386564 -69.57506583 334.7482921 -67.07140732 316.15932083 C-65.40318074 303.77295102 -63.74089055 291.38583162 -62.09192085 278.99688244 C-61.07234663 271.33752199 -60.04815512 263.6787895 -59.02024651 256.0205431 C-58.42118513 251.55570583 -57.82459231 247.09057052 -57.23400879 242.62460327 C-56.68757007 238.49291864 -56.13453328 234.3621728 -55.57626152 230.23207092 C-55.37430358 228.72899098 -55.17481277 227.22557715 -54.97798347 225.72181702 C-54.71043311 223.68037277 -54.43410454 221.64030476 -54.15551758 219.6003418 C-54.00375565 218.46283981 -53.85199371 217.32533783 -53.69563293 216.15336609 C-53.16600436 213.45862918 -52.39519207 211.64735093 -51.125 209.25 C-50.65189726 206.42766627 -50.26286445 203.65193298 -49.94140625 200.8125 C-49.84123199 199.98373352 -49.74105774 199.15496704 -49.6378479 198.30108643 C-49.31452029 195.61812853 -49.00099405 192.93412296 -48.6875 190.25 C-48.25135167 186.59847671 -47.80996448 182.94759988 -47.3671875 179.296875 C-47.26010971 178.40965759 -47.15303192 177.52244019 -47.04270935 176.6083374 C-46.17743365 169.50743943 -45.18699583 162.4313589 -43.93774414 155.38671875 C-43.295284 151.5272374 -43.11833769 147.89654917 -43.21630859 143.98217773 C-43.24105095 136.36203553 -42.22435653 128.92421929 -41.18359375 121.39453125 C-40.97771294 119.86260486 -40.77249359 118.33058944 -40.56788635 116.79849243 C-40.02174102 112.72500287 -39.46562533 108.65293604 -38.90710449 104.58112717 C-38.44552145 101.20753331 -37.98957913 97.83318685 -37.53362083 94.45882893 C-36.08222544 83.72004496 -34.60954977 72.98424738 -33.125 62.25 C-33.02716469 61.54255142 -32.92932938 60.83510284 -32.82852936 60.10621643 C-31.60948712 51.29777308 -30.3754067 42.49154386 -29.125 33.6875 C-28.98383759 32.69005768 -28.84267517 31.69261536 -28.69723511 30.66494751 C-28.30165439 27.87898103 -27.90178048 25.09367213 -27.5 22.30859375 C-27.38894424 21.52650543 -27.27788849 20.74441711 -27.16346741 19.93862915 C-26.57528926 15.90613569 -25.91555334 11.88809886 -25.18359375 7.87915039 C-25.03720459 7.06901993 -24.89081543 6.25888947 -24.73999023 5.42420959 C-23.94183025 2.60242967 -22.65180254 0.70304905 -20.21875 -0.97265625 C-13.74819501 -3.37497051 -6.28460207 -2.58172687 0 0 Z " fill="#59D8DD" transform="translate(1313.125,300.75)"/>
<path d="M0 0 C3.11000687 1.64345317 5.47948792 2.90077101 6.875 6.25 C7.09551524 12.11674965 6.54123298 17.6514353 5.66796875 23.4453125 C5.54272324 24.30797729 5.41747772 25.17064209 5.28843689 26.05944824 C4.88488772 28.83207135 4.47370262 31.60350272 4.0625 34.375 C3.78500067 36.2738318 3.50814646 38.17275798 3.23193359 40.07177734 C2.82300535 42.88300018 2.41375367 45.69416922 2.00238037 48.5050354 C0.96106595 55.62308884 -0.03924917 62.74557479 -1 69.875 C-1.11964111 70.76074707 -1.23928223 71.64649414 -1.36254883 72.55908203 C-1.61798559 74.4558819 -1.87175793 76.35290587 -2.125 78.25 C-2.455 78.25 -2.785 78.25 -3.125 78.25 C-3.125 73.63 -3.125 69.01 -3.125 64.25 C-12.40434409 62.0049974 -21.6243676 61.64327237 -31.125 61.25 C-31.455 64.88 -31.785 68.51 -32.125 72.25 C-32.455 72.25 -32.785 72.25 -33.125 72.25 C-33.33343259 64.99114604 -32.72957498 58.08137783 -31.6640625 50.90625 C-31.51343353 49.85651001 -31.36280457 48.80677002 -31.20761108 47.72521973 C-30.88975858 45.51962219 -30.5685523 43.3145056 -30.24414062 41.10986328 C-29.75154297 37.76049129 -29.26941176 34.40974204 -28.7890625 31.05859375 C-28.47717461 28.90355716 -28.16469431 26.7486062 -27.8515625 24.59375 C-27.63737167 23.11050232 -27.63737167 23.11050232 -27.41885376 21.59729004 C-26.73476661 16.96492608 -26.00280054 12.34294099 -25.16162109 7.73632812 C-25.01840424 6.94681763 -24.87518738 6.15730713 -24.72763062 5.34387207 C-23.92713798 2.56251792 -22.61542642 0.67799589 -20.21875 -0.97265625 C-13.74819501 -3.37497051 -6.28460207 -2.58172687 0 0 Z " fill="#172A30" transform="translate(1313.125,300.75)"/>
<path d="M0 0 C4.28065924 1.20298127 7.6740429 2.87494549 11.0625 5.75 C12.5426631 9.30239144 12.30943814 12.16296701 12 16 C11.34 16.66 10.68 17.32 10 18 C9.53340269 20.72469786 9.16400746 23.38179802 8.875 26.125 C8.78863281 26.87910156 8.70226563 27.63320313 8.61328125 28.41015625 C8.40110739 30.27257127 8.19954237 32.13618931 8 34 C7.16339844 33.86722656 6.32679687 33.73445313 5.46484375 33.59765625 C-3.36486173 32.25804423 -12.0847527 31.47448095 -21 31 C-22.25056807 24.73209256 -21.97272607 18.94040878 -20.9375 12.6875 C-20.84106201 12.00623047 -20.74462402 11.32496094 -20.64526367 10.62304688 C-19.96973515 6.97599973 -18.96586321 4.54037732 -16.2734375 2.0546875 C-10.94416223 -1.29041846 -6.09180151 -0.79331704 0 0 Z " fill="#F0696A" transform="translate(1308,299)"/>
<path d="M0 0 C9.52151787 -0.27643116 18.88484398 -0.03838534 28 3 C28.8649473 9.42223373 25.78898097 14.31211364 23 19.875 C22.52304688 20.84953125 22.04609375 21.8240625 21.5546875 22.828125 C20.38018157 25.22411709 19.19510731 27.61423525 18 30 C17.34 30 16.68 30 16 30 C15.34 31.98 14.68 33.96 14 36 C11.03 35.67 8.06 35.34 5 35 C2.79186797 23.37050465 1.17098714 11.77875299 0 0 Z " fill="#F4D0C8" transform="translate(1230,755)"/>
<path d="M0 0 C2.26415181 1.63699239 2.92184931 2.54488718 3.3984375 5.3203125 C3.34563709 11.63876145 2.75032389 17.76967832 1.75 24 C1.64091309 24.72977051 1.53182617 25.45954102 1.41943359 26.21142578 C0.6318241 30.65321301 -0.32096097 33.2942152 -4 36 C-7.0625 36.5 -7.0625 36.5 -10 36 C-11.875 34.5625 -11.875 34.5625 -13 32 C-13.61739436 25.40490839 -12.50706006 19.06445309 -11.1875 12.625 C-10.9390332 11.29275391 -10.9390332 11.29275391 -10.68554688 9.93359375 C-10.51474609 9.08152344 -10.34394531 8.22945313 -10.16796875 7.3515625 C-10.01610107 6.58666504 -9.8642334 5.82176758 -9.70776367 5.03369141 C-7.95953488 0.0103227 -5.02758527 -0.62844816 0 0 Z " fill="#13242A" transform="translate(1293,410)"/>
<path d="M0 0 C3.33355646 -0.05435146 6.66621125 -0.0938431 10 -0.125 C10.93457031 -0.14175781 11.86914062 -0.15851563 12.83203125 -0.17578125 C18.59209963 -0.21606145 23.4774282 0.34583345 29 2 C28.67 6.29 28.34 10.58 28 15 C21.39753314 15.1074664 14.99878797 14.71245093 8.4375 14 C7.52419922 13.90460938 6.61089844 13.80921875 5.66992188 13.7109375 C3.44617862 13.4780848 1.22302283 13.23963288 -1 13 C-0.67 8.71 -0.34 4.42 0 0 Z " fill="#A1BAF6" transform="translate(1286,332)"/>
<path d="M0 0 C0.33 0 0.66 0 1 0 C1.18686019 6.69049412 0.46300307 13.07019126 -0.4609375 19.69140625 C-0.68688095 21.34752174 -0.68688095 21.34752174 -0.91738892 23.03709412 C-1.23590651 25.36127427 -1.55711342 27.68508728 -1.88085938 30.00854492 C-2.37374771 33.55349331 -2.85541969 37.09984043 -3.3359375 40.64648438 C-3.64776597 42.91155088 -3.96024409 45.17652807 -4.2734375 47.44140625 C-4.41623138 48.49574356 -4.55902527 49.55008087 -4.70614624 50.6363678 C-5.44962786 55.91906651 -6.36783793 60.91814233 -8 66 C-8.33 65.01 -8.66 64.02 -9 63 C-11.22846409 62.68252863 -13.45782647 62.37136276 -15.6875 62.0625 C-16.92886719 61.88847656 -18.17023438 61.71445312 -19.44921875 61.53515625 C-25.27735159 60.7892981 -31.14093014 60.41654281 -37 60 C-36.84853516 60.91813477 -36.69707031 61.83626953 -36.54101562 62.78222656 C-35.97939035 66.19604422 -35.42062103 69.61030408 -34.86376953 73.02490234 C-34.62239675 74.50132619 -34.37989441 75.97756583 -34.13623047 77.45361328 C-33.78574683 79.57797329 -33.43936018 81.70296739 -33.09375 83.828125 C-32.88427734 85.1059082 -32.67480469 86.38369141 -32.45898438 87.70019531 C-32 91 -32 91 -32 95 C-30.88625 94.979375 -29.7725 94.95875 -28.625 94.9375 C-25 95 -25 95 -23 96 C-22.34 94.02 -21.68 92.04 -21 90 C-19.8461841 93.4614477 -20.08437563 93.79774007 -21.6171875 96.90625 C-21.97683594 97.65003906 -22.33648438 98.39382813 -22.70703125 99.16015625 C-23.09246094 99.93230469 -23.47789063 100.70445312 -23.875 101.5 C-24.62369763 103.03061392 -25.37114481 104.56184028 -26.1171875 106.09375 C-26.45347168 106.77115234 -26.78975586 107.44855469 -27.13623047 108.14648438 C-28.11484955 110.15439219 -28.11484955 110.15439219 -29 113 C-29.66 113 -30.32 113 -31 113 C-31.83786238 107.73496613 -32.67398371 102.46965971 -33.50854492 97.20410156 C-33.79225475 95.41561551 -34.07642691 93.62720272 -34.36108398 91.83886719 C-34.77190969 89.25735642 -35.18103105 86.67558022 -35.58984375 84.09375 C-35.71592514 83.30383667 -35.84200653 82.51392334 -35.97190857 81.70007324 C-39.4678606 59.56270964 -37.59187347 37.89754445 -33 16 C-32.67 16 -32.34 16 -32 16 C-32.44397498 30.49578325 -34.74076467 44.69412622 -37 59 C-35.82824219 58.96519531 -34.65648437 58.93039062 -33.44921875 58.89453125 C-24.4348464 58.7102903 -16.60980409 58.99701965 -8 62 C-7.96261719 61.24533447 -7.92523437 60.49066895 -7.88671875 59.71313477 C-7.26704507 49.34195407 -5.88613932 39.12646764 -4.41601562 28.84692383 C-3.99639576 25.9122936 -3.58356803 22.97676743 -3.171875 20.04101562 C-2.90663706 18.16140367 -2.64102577 16.28184436 -2.375 14.40234375 C-2.25205566 13.53149643 -2.12911133 12.66064911 -2.00244141 11.76341248 C-1.43689919 7.81634219 -0.84431949 3.89950149 0 0 Z " fill="#446266" transform="translate(1267,695)"/>
<path d="M0 0 C0.33 0 0.66 0 1 0 C1.27908417 8.01494846 0.19838511 15.64749025 -1 23.5625 C-1.28617188 25.50479492 -1.28617188 25.50479492 -1.578125 27.48632812 C-2.04633521 30.65845229 -2.52043473 33.82957613 -3 37 C-3.33 36.34 -3.66 35.68 -4 35 C-6.02463255 34.34786708 -6.02463255 34.34786708 -8 34 C-6.68 34 -5.36 34 -4 34 C-3.67 29.71 -3.34 25.42 -3 21 C-9.33245134 20.11136591 -15.61343405 19.70617622 -22 19.4375 C-22.96550781 19.39431641 -23.93101563 19.35113281 -24.92578125 19.30664062 C-27.28372919 19.20158354 -29.64184884 19.1003923 -32 19 C-32.33 23.29 -32.66 27.58 -33 32 C-33.66 31.67 -34.32 31.34 -35 31 C-34.71840367 28.06121273 -34.42518615 25.12439587 -34.125 22.1875 C-34.04636719 21.35412109 -33.96773437 20.52074219 -33.88671875 19.66210938 C-33.80292969 18.85966797 -33.71914062 18.05722656 -33.6328125 17.23046875 C-33.52283936 16.12288208 -33.52283936 16.12288208 -33.41064453 14.99291992 C-33 13 -33 13 -31 10 C-31 12.31 -31 14.62 -31 17 C-29.58460937 16.96519531 -29.58460937 16.96519531 -28.140625 16.9296875 C-8.6875 16.65625 -8.6875 16.65625 -2 20 C-1.90912109 18.33710938 -1.90912109 18.33710938 -1.81640625 16.640625 C-1.73197049 15.1770718 -1.64732401 13.71353075 -1.5625 12.25 C-1.52318359 11.52039063 -1.48386719 10.79078125 -1.44335938 10.0390625 C-1.23852902 6.5727027 -0.9147998 3.34666974 0 0 Z " fill="#47535D" transform="translate(1318,313)"/>
<path d="M0 0 C1.1538159 3.4614477 0.91562437 3.79774007 -0.6171875 6.90625 C-0.97683594 7.65003906 -1.33648438 8.39382813 -1.70703125 9.16015625 C-2.09246094 9.93230469 -2.47789063 10.70445312 -2.875 11.5 C-3.62369763 13.03061392 -4.37114481 14.56184028 -5.1171875 16.09375 C-5.45347168 16.77115234 -5.78975586 17.44855469 -6.13623047 18.14648438 C-7.11484955 20.15439219 -7.11484955 20.15439219 -8 23 C-8.66 23 -9.32 23 -10 23 C-10.33910994 20.95928485 -10.67102704 18.91737379 -11 16.875 C-11.185625 15.73804688 -11.37125 14.60109375 -11.5625 13.4296875 C-11.96956049 10.23862398 -12.07809902 7.21182209 -12 4 C-7.05 4.99 -7.05 4.99 -2 6 C-1.34 4.02 -0.68 2.04 0 0 Z " fill="#202C31" transform="translate(1246,785)"/>
<path d="M0 0 C0.33 0 0.66 0 1 0 C1 2.31 1 4.62 1 7 C5.95 7 10.9 7 16 7 C14 9 14 9 10.7421875 9.1953125 C9.46601562 9.17210937 8.18984375 9.14890625 6.875 9.125 C4.95300781 9.09792969 4.95300781 9.09792969 2.9921875 9.0703125 C1.51105469 9.03550781 1.51105469 9.03550781 0 9 C-0.33 13.29 -0.66 17.58 -1 22 C-1.66 21.67 -2.32 21.34 -3 21 C-2.69152766 18.06202558 -2.37839777 15.12467718 -2.0625 12.1875 C-1.97548828 11.35412109 -1.88847656 10.52074219 -1.79882812 9.66210938 C-1.71181641 8.85966797 -1.62480469 8.05722656 -1.53515625 7.23046875 C-1.456604 6.49207764 -1.37805176 5.75368652 -1.29711914 4.99291992 C-1 3 -1 3 0 0 Z " fill="#595D6A" transform="translate(1286,323)"/>
<path d="M0 0 C-2.58926331 2.58926331 -4.02705279 2.37398043 -7.625 2.625 C-8.62789062 2.69976563 -9.63078125 2.77453125 -10.6640625 2.8515625 C-11.82035156 2.92503906 -11.82035156 2.92503906 -13 3 C-8.83099908 0.22066605 -4.8978425 -1.63261417 0 0 Z " fill="#B6AEE5" transform="translate(1373,1458)"/>
</svg>
